<svg xmlns="http://www.w3.org/2000/svg" xmlns:xlink="http://www.w3.org/1999/xlink" viewBox="0 0 142.02 102.17"><defs><style>.cls-1,.cls-10,.cls-6{fill:none;}.cls-2{clip-path:url(#clip-path);}.cls-3{fill:#2c4b5b;}.cls-4{fill:#d5dbde;}.cls-5{fill:#617884;}.cls-10,.cls-6,.cls-8,.cls-9{stroke:#2c4b5b;}.cls-10,.cls-6{stroke-miterlimit:10;}.cls-6{stroke-width:2px;}.cls-7{fill:#80939d;}.cls-8{fill:#c0c9ce;}.cls-8,.cls-9{stroke-linecap:round;stroke-linejoin:round;}.cls-10,.cls-8,.cls-9{stroke-width:0.5px;}.cls-9{fill:#eaedef;}</style><clipPath id="clip-path" transform="translate(2.68 -3.51)"><rect class="cls-1" width="136.27" height="90.38"/></clipPath></defs><g id="Layer_2" data-name="Layer 2"><g id="Layer_1-2" data-name="Layer 1"><g class="cls-2"><path class="cls-3" d="M138.84,7.12v7h-141v-7h141m.5-.5h-142v8h142v-8Z" transform="translate(2.68 -3.51)"/><rect class="cls-4" x="0.47" y="3.61" width="141.02" height="3.57"/><rect class="cls-5" x="0.47" y="7.05" width="141.02" height="3.57"/><ellipse class="cls-6" cx="29.82" cy="8.37" rx="1.95" ry="7.37"/><ellipse class="cls-6" cx="50.38" cy="8.37" rx="1.95" ry="7.37"/><ellipse class="cls-6" cx="70.94" cy="8.37" rx="0.39" ry="7.37"/><ellipse class="cls-6" cx="91.5" cy="8.37" rx="1.95" ry="7.37"/><ellipse class="cls-6" cx="112.07" cy="8.37" rx="1.95" ry="7.37"/><path class="cls-7" d="M98.68,104.51a20.19,20.19,0,0,1-5.19-.59,20.08,20.08,0,0,0-5.09-.58h-.25V19.85h.25a20.28,20.28,0,0,1,5.2.59,20,20,0,0,0,5.08.57,20.06,20.06,0,0,0,5.09-.57,20.28,20.28,0,0,1,5.2-.59h.25v83.49H109a20.08,20.08,0,0,0-5.09.58A20.22,20.22,0,0,1,98.68,104.51Z" transform="translate(2.68 -3.51)"/><path class="cls-3" d="M109,20.1v83c-5.14,0-5.14,1.17-10.29,1.17s-5.14-1.17-10.28-1.17v-83c5.14,0,5.14,1.16,10.28,1.16S103.83,20.1,109,20.1m.5-.5H109a20.61,20.61,0,0,0-5.25.59,19.19,19.19,0,0,1-5,.57,19.16,19.16,0,0,1-5-.57,20.61,20.61,0,0,0-5.25-.59h-.5v84h.5a19.55,19.55,0,0,1,5,.57,23.31,23.31,0,0,0,10.51,0,19.55,19.55,0,0,1,5-.57h.5v-84Z" transform="translate(2.68 -3.51)"/><path class="cls-7" d="M78.11,104.51a20.28,20.28,0,0,1-5.2-.59,22.62,22.62,0,0,0-10.18,0,20.12,20.12,0,0,1-5.19.59,20.22,20.22,0,0,1-5.2-.59,20,20,0,0,0-5.09-.58,20,20,0,0,0-5.09.58,20.28,20.28,0,0,1-5.2.59,20.28,20.28,0,0,1-5.2-.59,20,20,0,0,0-5.09-.58h-.25V19.85h.25a20.28,20.28,0,0,1,5.2.59A20.12,20.12,0,0,0,37,21a20.12,20.12,0,0,0,5.09-.57,20.28,20.28,0,0,1,5.2-.59,20.28,20.28,0,0,1,5.2.59,20.06,20.06,0,0,0,5.09.57,20,20,0,0,0,5.08-.57,23.21,23.21,0,0,1,10.4,0,23,23,0,0,0,10.18,0,20.28,20.28,0,0,1,5.2-.59h.25v83.49H88.4a20,20,0,0,0-5.09.58A20.28,20.28,0,0,1,78.11,104.51Z" transform="translate(2.68 -3.51)"/><path class="cls-3" d="M88.4,20.1v83c-5.15,0-5.15,1.17-10.29,1.17s-5.14-1.17-10.29-1.17-5.14,1.17-10.28,1.17-5.15-1.17-10.29-1.17S42.1,104.26,37,104.26s-5.14-1.17-10.29-1.17v-83c5.15,0,5.15,1.16,10.29,1.16S42.1,20.1,47.25,20.1s5.14,1.16,10.29,1.16,5.14-1.16,10.28-1.16S73,21.26,78.11,21.26,83.25,20.1,88.4,20.1m.5-.5h-.5a20.71,20.71,0,0,0-5.26.59,22.48,22.48,0,0,1-10.06,0,23.7,23.7,0,0,0-10.51,0,19.16,19.16,0,0,1-5,.57,19.19,19.19,0,0,1-5-.57,20.61,20.61,0,0,0-5.25-.59,20.77,20.77,0,0,0-5.26.59,19,19,0,0,1-5,.57,19.1,19.1,0,0,1-5-.57,20.71,20.71,0,0,0-5.26-.59h-.5v84h.5a19.64,19.64,0,0,1,5,.57,20.06,20.06,0,0,0,5.25.6,20.21,20.21,0,0,0,5.26-.6,19.48,19.48,0,0,1,5-.57,19.55,19.55,0,0,1,5,.57,20.15,20.15,0,0,0,5.26.6,20.12,20.12,0,0,0,5.25-.6,22.52,22.52,0,0,1,10.07,0,23.27,23.27,0,0,0,10.5,0,19.64,19.64,0,0,1,5-.57h.5v-84Z" transform="translate(2.68 -3.51)"/><path class="cls-8" d="M26.71,61.76c2.12-10.47,1.86-39.08,1.82-42.46a2.31,2.31,0,0,1-1.85.67,2.41,2.41,0,0,1-1.86-.66c0,3.35-.3,32,1.83,42.47" transform="translate(2.68 -3.51)"/><path class="cls-9" d="M24.73,19.26a2.58,2.58,0,0,0-2.67-1.91c-2.7,0-2.69,1.95-2.69,1.95s-.3,25.17,7.28,42.35Z" transform="translate(2.68 -3.51)"/><path class="cls-9" d="M28.61,19.26a2.58,2.58,0,0,1,2.67-1.91c2.7,0,2.7,1.95,2.7,1.95s.29,25.17-7.29,42.35Z" transform="translate(2.68 -3.51)"/><path class="cls-8" d="M26.63,61c-2.12,10.47-1.86,39.08-1.82,42.46a2.33,2.33,0,0,1,1.85-.67,2.39,2.39,0,0,1,1.86.66c0-3.35.3-32-1.83-42.47" transform="translate(2.68 -3.51)"/><path class="cls-9" d="M28.61,103.53a2.57,2.57,0,0,0,2.67,1.9c2.7,0,2.7-2,2.7-2s.29-25.17-7.29-42.34Z" transform="translate(2.68 -3.51)"/><path class="cls-9" d="M24.73,103.53a2.57,2.57,0,0,1-2.67,1.9c-2.7,0-2.69-2-2.69-2s-.3-25.17,7.28-42.34Z" transform="translate(2.68 -3.51)"/><path class="cls-8" d="M47.82,61.76C50,51.29,49.69,22.68,49.65,19.3a2.35,2.35,0,0,1-1.86.67,2.38,2.38,0,0,1-1.85-.66c0,3.35-.3,32,1.82,42.47" transform="translate(2.68 -3.51)"/><path class="cls-9" d="M45.85,19.26a2.58,2.58,0,0,0-2.67-1.91c-2.7,0-2.7,1.95-2.7,1.95s-.3,25.17,7.28,42.35Z" transform="translate(2.68 -3.51)"/><path class="cls-9" d="M49.72,19.26a2.58,2.58,0,0,1,2.67-1.91c2.7,0,2.7,1.95,2.7,1.95s.29,25.17-7.29,42.35Z" transform="translate(2.68 -3.51)"/><path class="cls-8" d="M47.75,61c-2.13,10.47-1.87,39.08-1.83,42.46a2.35,2.35,0,0,1,1.86-.67,2.38,2.38,0,0,1,1.85.66c0-3.35.3-32-1.83-42.47" transform="translate(2.68 -3.51)"/><path class="cls-9" d="M49.72,103.53a2.57,2.57,0,0,0,2.67,1.9c2.7,0,2.7-2,2.7-2s.29-25.17-7.29-42.34Z" transform="translate(2.68 -3.51)"/><path class="cls-9" d="M45.85,103.53a2.57,2.57,0,0,1-2.67,1.9c-2.7,0-2.7-2-2.7-2s-.3-25.17,7.28-42.34Z" transform="translate(2.68 -3.51)"/><path class="cls-8" d="M68.36,61.76c2.13-10.47,1.87-39.08,1.83-42.46a2.33,2.33,0,0,1-1.85.67,2.39,2.39,0,0,1-1.86-.66c0,3.35-.3,32,1.83,42.47" transform="translate(2.68 -3.51)"/><path class="cls-9" d="M66.39,19.26a2.58,2.58,0,0,0-2.67-1.91C61,17.35,61,19.3,61,19.3s-.29,25.17,7.29,42.35Z" transform="translate(2.68 -3.51)"/><path class="cls-9" d="M70.26,19.26a2.59,2.59,0,0,1,2.67-1.91c2.7,0,2.7,1.95,2.7,1.95s.3,25.17-7.28,42.35Z" transform="translate(2.68 -3.51)"/><path class="cls-8" d="M68.29,61c-2.12,10.47-1.86,39.08-1.83,42.46a2.35,2.35,0,0,1,1.86-.67,2.38,2.38,0,0,1,1.85.66c0-3.35.31-32-1.82-42.47" transform="translate(2.68 -3.51)"/><path class="cls-9" d="M70.26,103.53a2.59,2.59,0,0,0,2.67,1.9c2.7,0,2.7-2,2.7-2s.3-25.17-7.28-42.34Z" transform="translate(2.68 -3.51)"/><path class="cls-9" d="M66.39,103.53a2.57,2.57,0,0,1-2.67,1.9c-2.7,0-2.7-2-2.7-2s-.29-25.17,7.29-42.34Z" transform="translate(2.68 -3.51)"/><path class="cls-8" d="M88.91,61.76C91,51.29,90.78,22.68,90.74,19.3a2.35,2.35,0,0,1-1.86.67A2.38,2.38,0,0,1,87,19.31c0,3.35-.3,32,1.82,42.47" transform="translate(2.68 -3.51)"/><path class="cls-9" d="M86.94,19.26a2.58,2.58,0,0,0-2.67-1.91c-2.7,0-2.7,1.95-2.7,1.95s-.3,25.17,7.28,42.35Z" transform="translate(2.68 -3.51)"/><path class="cls-9" d="M90.81,19.26a2.58,2.58,0,0,1,2.67-1.91c2.7,0,2.7,1.95,2.7,1.95s.29,25.17-7.29,42.35Z" transform="translate(2.68 -3.51)"/><path class="cls-8" d="M88.84,61C86.71,71.49,87,100.1,87,103.48a2.35,2.35,0,0,1,1.86-.67,2.38,2.38,0,0,1,1.85.66c0-3.35.3-32-1.83-42.47" transform="translate(2.68 -3.51)"/><path class="cls-9" d="M90.81,103.53a2.57,2.57,0,0,0,2.67,1.9c2.7,0,2.7-2,2.7-2s.29-25.17-7.29-42.34Z" transform="translate(2.68 -3.51)"/><path class="cls-9" d="M86.94,103.53a2.57,2.57,0,0,1-2.67,1.9c-2.7,0-2.7-2-2.7-2s-.3-25.17,7.28-42.34Z" transform="translate(2.68 -3.51)"/><path class="cls-8" d="M109.46,61.76c2.12-10.47,1.86-39.08,1.82-42.46a2.33,2.33,0,0,1-1.85.67,2.39,2.39,0,0,1-1.86-.66c0,3.35-.3,32,1.83,42.47" transform="translate(2.68 -3.51)"/><path class="cls-9" d="M107.48,19.26a2.58,2.58,0,0,0-2.67-1.91c-2.7,0-2.7,1.95-2.7,1.95s-.29,25.17,7.29,42.35Z" transform="translate(2.68 -3.51)"/><path class="cls-9" d="M111.36,19.26A2.58,2.58,0,0,1,114,17.35c2.7,0,2.69,1.95,2.69,1.95s.3,25.17-7.28,42.35Z" transform="translate(2.68 -3.51)"/><path class="cls-8" d="M109.38,61c-2.12,10.47-1.86,39.08-1.82,42.46a2.31,2.31,0,0,1,1.85-.67,2.41,2.41,0,0,1,1.86.66c0-3.35.3-32-1.83-42.47" transform="translate(2.68 -3.51)"/><path class="cls-9" d="M111.36,103.53a2.57,2.57,0,0,0,2.67,1.9c2.7,0,2.69-2,2.69-2s.3-25.17-7.28-42.34Z" transform="translate(2.68 -3.51)"/><path class="cls-9" d="M107.48,103.53a2.57,2.57,0,0,1-2.67,1.9c-2.7,0-2.7-2-2.7-2s-.29-25.17,7.29-42.34Z" transform="translate(2.68 -3.51)"/><line class="cls-10" x1="29.36" y1="10.62" x2="36.97" y2="10.62"/><line class="cls-10" x1="36.97" y1="3.61" x2="29.36" y2="3.61"/><rect class="cls-4" x="29.36" y="3.61" width="7.61" height="3.57"/><rect class="cls-5" x="29.36" y="7.05" width="7.61" height="3.57"/><line class="cls-10" x1="50.47" y1="10.62" x2="58.08" y2="10.62"/><line class="cls-10" x1="58.08" y1="3.61" x2="50.47" y2="3.61"/><rect class="cls-4" x="50.47" y="3.61" width="7.61" height="3.57"/><rect class="cls-5" x="50.47" y="7.05" width="7.61" height="3.57"/><line class="cls-10" x1="83.71" y1="10.62" x2="91.31" y2="10.62"/><line class="cls-10" x1="91.31" y1="3.61" x2="83.71" y2="3.61"/><rect class="cls-4" x="83.7" y="3.61" width="7.61" height="3.57"/><rect class="cls-5" x="83.7" y="7.05" width="7.61" height="3.57"/><line class="cls-10" x1="104.2" y1="10.62" x2="111.81" y2="10.62"/><line class="cls-10" x1="111.81" y1="3.61" x2="104.2" y2="3.61"/><rect class="cls-4" x="104.2" y="3.61" width="7.61" height="3.57"/><rect class="cls-5" x="104.2" y="7.05" width="7.61" height="3.57"/></g></g></g></svg>