<svg xmlns="http://www.w3.org/2000/svg" xmlns:xlink="http://www.w3.org/1999/xlink" viewBox="0 0 141.52 103.6"><defs><style>.cls-1,.cls-11,.cls-6,.cls-9{fill:none;}.cls-2{clip-path:url(#clip-path);}.cls-11,.cls-3,.cls-6,.cls-9{stroke:#2c4b5b;}.cls-3,.cls-9{stroke-miterlimit:10;}.cls-11,.cls-3,.cls-9{stroke-width:0.5px;}.cls-3{fill:url(#New_Gradient_Swatch_2);}.cls-4{fill:url(#linear-gradient);}.cls-5{fill:url(#linear-gradient-2);}.cls-11,.cls-6{stroke-linecap:round;stroke-linejoin:round;}.cls-6{stroke-width:1.4px;}.cls-7{fill:url(#linear-gradient-3);}.cls-8{fill:url(#linear-gradient-4);}.cls-10{fill:url(#New_Gradient_Swatch_2-2);}.cls-12{fill:url(#New_Gradient_Swatch_2-3);}.cls-13{fill:url(#New_Gradient_Swatch_2-4);}.cls-14{fill:#2c4b5b;opacity:0.2;}.cls-15{fill:url(#New_Gradient_Swatch_2-5);}</style><clipPath id="clip-path" transform="translate(2.63 -5.28)"><rect class="cls-1" width="136.27" height="90.38"/></clipPath><linearGradient id="New_Gradient_Swatch_2" x1="70.76" y1="10.18" x2="70.76" y2="17.47" gradientUnits="userSpaceOnUse"><stop offset="0.5" stop-color="#d5dbde"/><stop offset="0.5" stop-color="#617884"/></linearGradient><linearGradient id="linear-gradient" x1="97.19" y1="56.68" x2="128.9" y2="57.23" gradientUnits="userSpaceOnUse"><stop offset="0" stop-color="#dfe4e6"/><stop offset="0.3" stop-color="#d5dbde"/><stop offset="0.3" stop-color="#c0c9ce"/><stop offset="0.6" stop-color="#c0c9ce"/><stop offset="0.6" stop-color="#d5dbde"/><stop offset="1" stop-color="#dfe4e6"/></linearGradient><linearGradient id="linear-gradient-2" x1="37.29" y1="56.68" x2="69" y2="57.23" xlink:href="#linear-gradient"/><linearGradient id="linear-gradient-3" x1="8.24" y1="57.08" x2="38.19" y2="57.08" xlink:href="#linear-gradient"/><linearGradient id="linear-gradient-4" x1="68.14" y1="57.08" x2="98.09" y2="57.08" xlink:href="#linear-gradient"/><linearGradient id="New_Gradient_Swatch_2-2" x1="25.84" y1="10.18" x2="25.84" y2="17.47" xlink:href="#New_Gradient_Swatch_2"/><linearGradient id="New_Gradient_Swatch_2-3" x1="55.79" y1="10.18" x2="55.79" y2="17.47" xlink:href="#New_Gradient_Swatch_2"/><linearGradient id="New_Gradient_Swatch_2-4" x1="85.74" y1="10.18" x2="85.74" y2="17.47" xlink:href="#New_Gradient_Swatch_2"/><linearGradient id="New_Gradient_Swatch_2-5" x1="115.69" y1="10.18" x2="115.69" y2="17.47" xlink:href="#New_Gradient_Swatch_2"/></defs><g id="Layer_2" data-name="Layer 2"><g id="Layer_1-2" data-name="Layer 1"><g class="cls-2"><rect class="cls-3" x="0.25" y="10.18" width="141.02" height="7.29"/><path class="cls-4" d="M98.09,106.73c7.48,0,7.48,1.9,15,1.9s7.49-1.9,15-1.9V5.53c-7.48,0-7.48,1.9-15,1.9s-7.49-1.9-15-1.9m7.48,19.25c-1.95,0-3.54-2.19-3.54-4.89S103.62,15,105.57,15s3.55,2.19,3.55,4.89S107.53,24.78,105.57,24.78Zm15,0c-2,0-3.55-2.19-3.55-4.89S118.59,15,120.55,15s3.54,2.19,3.54,4.89S122.5,24.78,120.55,24.78Z" transform="translate(2.63 -5.28)"/><path class="cls-5" d="M38.19,106.73c7.48,0,7.48,1.9,15,1.9s7.49-1.9,15-1.9V5.53c-7.49,0-7.49,1.9-15,1.9s-7.49-1.9-15-1.9m7.48,19.25c-2,0-3.54-2.19-3.54-4.89S43.72,15,45.67,15s3.55,2.19,3.55,4.89S47.63,24.78,45.67,24.78Zm15,0c-2,0-3.54-2.19-3.54-4.89S58.69,15,60.65,15s3.54,2.19,3.54,4.89S62.61,24.78,60.65,24.78Z" transform="translate(2.63 -5.28)"/><ellipse class="cls-6" cx="63.27" cy="14.61" rx="3.54" ry="4.89"/><ellipse class="cls-6" cx="48.3" cy="14.61" rx="3.54" ry="4.89"/><path class="cls-7" d="M38.19,5.53c-7.49,0-7.49,1.9-15,1.9s-7.48-1.9-15-1.9v101.2c7.49,0,7.49,1.9,15,1.9s7.49-1.9,15-1.9M15.73,24.78c-2,0-3.55-2.19-3.55-4.89S13.77,15,15.73,15s3.54,2.19,3.54,4.89S17.68,24.78,15.73,24.78Zm15,0c-2,0-3.54-2.19-3.54-4.89S28.74,15,30.7,15s3.54,2.19,3.54,4.89S32.66,24.78,30.7,24.78Z" transform="translate(2.63 -5.28)"/><path class="cls-8" d="M98.09,5.53c-7.49,0-7.49,1.9-15,1.9s-7.49-1.9-15-1.9v101.2c7.48,0,7.48,1.9,15,1.9s7.49-1.9,15-1.9M75.62,24.78c-2,0-3.54-2.19-3.54-4.89S73.67,15,75.62,15s3.55,2.19,3.55,4.89S77.58,24.78,75.62,24.78Zm15,0c-2,0-3.54-2.19-3.54-4.89S88.64,15,90.6,15s3.54,2.19,3.54,4.89S92.55,24.78,90.6,24.78Z" transform="translate(2.63 -5.28)"/><path class="cls-9" d="M113.06,7.43c-7.49,0-7.49-1.9-15-1.9s-7.49,1.9-15,1.9-7.49-1.9-15-1.9-7.49,1.9-15,1.9-7.49-1.9-15-1.9-7.49,1.9-15,1.9-7.48-1.9-15-1.9v101.2c7.49,0,7.49,1.9,15,1.9s7.49-1.9,15-1.9,7.48,1.9,15,1.9,7.49-1.9,15-1.9,7.48,1.9,15,1.9,7.49-1.9,15-1.9,7.48,1.9,15,1.9,7.49-1.9,15-1.9V5.53C120.55,5.53,120.55,7.43,113.06,7.43ZM15.73,24.78c-2,0-3.55-2.19-3.55-4.89S13.77,15,15.73,15s3.54,2.19,3.54,4.89S17.68,24.78,15.73,24.78Zm15,0c-2,0-3.54-2.19-3.54-4.89S28.74,15,30.7,15s3.54,2.19,3.54,4.89S32.66,24.78,30.7,24.78Zm15,0c-2,0-3.54-2.19-3.54-4.89S43.72,15,45.67,15s3.55,2.19,3.55,4.89S47.63,24.78,45.67,24.78Zm15,0c-2,0-3.54-2.19-3.54-4.89S58.69,15,60.65,15s3.54,2.19,3.54,4.89S62.61,24.78,60.65,24.78Zm15,0c-2,0-3.54-2.19-3.54-4.89S73.67,15,75.62,15s3.55,2.19,3.55,4.89S77.58,24.78,75.62,24.78Zm15,0c-2,0-3.54-2.19-3.54-4.89S88.64,15,90.6,15s3.54,2.19,3.54,4.89S92.55,24.78,90.6,24.78Zm15,0c-1.95,0-3.54-2.19-3.54-4.89S103.62,15,105.57,15s3.55,2.19,3.55,4.89S107.53,24.78,105.57,24.78Zm15,0c-2,0-3.55-2.19-3.55-4.89S118.59,15,120.55,15s3.54,2.19,3.54,4.89S122.5,24.78,120.55,24.78Z" transform="translate(2.63 -5.28)"/><ellipse class="cls-6" cx="33.33" cy="14.61" rx="3.54" ry="4.89"/><ellipse class="cls-6" cx="18.35" cy="14.61" rx="3.54" ry="4.89"/><polygon class="cls-10" points="18.35 10.19 18.35 13.83 18.35 17.47 33.33 17.47 33.33 13.83 33.33 10.19 18.35 10.19"/><line class="cls-11" x1="33.33" y1="17.47" x2="18.35" y2="17.47"/><line class="cls-11" x1="18.35" y1="10.18" x2="33.33" y2="10.18"/><polygon class="cls-12" points="48.3 10.19 48.3 13.83 48.3 17.47 63.27 17.47 63.27 13.83 63.27 10.19 48.3 10.19"/><line class="cls-9" x1="63.27" y1="17.47" x2="48.3" y2="17.47"/><line class="cls-11" x1="48.3" y1="10.18" x2="63.27" y2="10.18"/><ellipse class="cls-6" cx="123.17" cy="14.61" rx="3.54" ry="4.89"/><ellipse class="cls-6" cx="108.2" cy="14.61" rx="3.54" ry="4.89"/><ellipse class="cls-6" cx="93.22" cy="14.61" rx="3.54" ry="4.89"/><ellipse class="cls-6" cx="78.25" cy="14.61" rx="3.54" ry="4.89"/><polygon class="cls-13" points="78.25 10.19 78.25 13.83 78.25 17.47 93.22 17.47 93.22 13.83 93.22 10.19 78.25 10.19"/><line class="cls-9" x1="93.22" y1="17.47" x2="78.25" y2="17.47"/><line class="cls-11" x1="78.25" y1="10.18" x2="93.22" y2="10.18"/><polygon class="cls-14" points="111.53 17.72 108.84 19.24 108.03 20.22 123 20.22 122.31 19.24 119.63 17.72 111.53 17.72"/><polygon class="cls-14" points="81.76 17.72 79.06 19.24 78.25 20.22 93.22 20.22 92.53 19.24 89.85 17.72 81.76 17.72"/><polygon class="cls-14" points="51.81 17.72 49.11 19.24 48.3 20.22 63.27 20.22 62.59 19.24 59.9 17.72 51.81 17.72"/><polygon class="cls-14" points="21.86 17.72 19.16 19.24 18.35 20.22 33.33 20.22 32.64 19.24 29.95 17.72 21.86 17.72"/><polygon class="cls-15" points="108.2 10.19 108.2 13.83 108.2 17.47 123.17 17.47 123.17 13.83 123.17 10.19 108.2 10.19"/><line class="cls-11" x1="123.17" y1="17.47" x2="108.2" y2="17.47"/><line class="cls-11" x1="108.2" y1="10.18" x2="123.17" y2="10.18"/></g></g></g></svg>