<svg xmlns="http://www.w3.org/2000/svg" xmlns:xlink="http://www.w3.org/1999/xlink" viewBox="0 0 142.02 102.05"><defs><style>.cls-1,.cls-10,.cls-6{fill:none;}.cls-2{clip-path:url(#clip-path);}.cls-3{fill:#2c4b5b;}.cls-4{fill:#d5dbde;}.cls-5{fill:#617884;}.cls-10,.cls-6,.cls-9{stroke:#2c4b5b;stroke-miterlimit:10;}.cls-6{stroke-width:2px;}.cls-7{fill:#80939d;}.cls-8{fill:#c0c9ce;}.cls-9{fill:#eaedef;}.cls-10,.cls-9{stroke-width:0.5px;}</style><clipPath id="clip-path" transform="translate(2.68 -2.05)"><rect class="cls-1" width="136.27" height="90.38"/></clipPath></defs><g id="Layer_2" data-name="Layer 2"><g id="Layer_1-2" data-name="Layer 1"><g class="cls-2"><path class="cls-3" d="M138.84,5.66v7h-141v-7h141m.5-.5h-142v8h142v-8Z" transform="translate(2.68 -2.05)"/><rect class="cls-4" x="0.47" y="3.61" width="141.02" height="3.57"/><rect class="cls-5" x="0.47" y="7.05" width="141.02" height="3.57"/><ellipse class="cls-6" cx="29.82" cy="8.37" rx="1.95" ry="7.37"/><ellipse class="cls-6" cx="50.38" cy="8.37" rx="1.95" ry="7.37"/><ellipse class="cls-6" cx="70.94" cy="8.37" rx="0.39" ry="7.37"/><ellipse class="cls-6" cx="91.5" cy="8.37" rx="1.95" ry="7.37"/><ellipse class="cls-6" cx="112.07" cy="8.37" rx="1.95" ry="7.37"/><path class="cls-7" d="M98.68,103.05a20.76,20.76,0,0,1-5.19-.58,19.62,19.62,0,0,0-5.09-.58h-.25V18.39h.25a20.28,20.28,0,0,1,5.2.59,19.92,19.92,0,0,0,5.08.58,20,20,0,0,0,5.09-.58,20.28,20.28,0,0,1,5.2-.59h.25v83.5H109a19.62,19.62,0,0,0-5.09.58A20.79,20.79,0,0,1,98.68,103.05Z" transform="translate(2.68 -2.05)"/><path class="cls-3" d="M109,18.64v83c-5.14,0-5.14,1.16-10.29,1.16s-5.14-1.16-10.28-1.16v-83c5.14,0,5.14,1.17,10.28,1.17s5.15-1.17,10.29-1.17m.5-.5H109a20.51,20.51,0,0,0-5.25.6,19.64,19.64,0,0,1-5,.57,19.61,19.61,0,0,1-5-.57,20.51,20.51,0,0,0-5.25-.6h-.5v84h.5a19.55,19.55,0,0,1,5,.57,23.7,23.7,0,0,0,10.51,0,19.55,19.55,0,0,1,5-.57h.5v-84Z" transform="translate(2.68 -2.05)"/><path class="cls-7" d="M78.11,103.05a20.85,20.85,0,0,1-5.2-.58,19.5,19.5,0,0,0-5.09-.58,19.62,19.62,0,0,0-5.09.58,20.69,20.69,0,0,1-5.19.58,20.79,20.79,0,0,1-5.2-.58,19.56,19.56,0,0,0-5.09-.58,19.5,19.5,0,0,0-5.09.58,20.85,20.85,0,0,1-5.2.58,20.85,20.85,0,0,1-5.2-.58,19.5,19.5,0,0,0-5.09-.58h-.25V18.39h.25a20.28,20.28,0,0,1,5.2.59,20,20,0,0,0,5.09.58A20,20,0,0,0,42.05,19a20.28,20.28,0,0,1,5.2-.59,20.28,20.28,0,0,1,5.2.59,20,20,0,0,0,5.09.58A19.92,19.92,0,0,0,62.62,19,23.21,23.21,0,0,1,73,19a20,20,0,0,0,5.09.58A20,20,0,0,0,83.2,19a20.28,20.28,0,0,1,5.2-.59h.25v83.5H88.4a19.5,19.5,0,0,0-5.09.58A20.85,20.85,0,0,1,78.11,103.05Z" transform="translate(2.68 -2.05)"/><path class="cls-3" d="M88.4,18.64v83c-5.15,0-5.15,1.16-10.29,1.16s-5.14-1.16-10.29-1.16-5.14,1.16-10.28,1.16-5.15-1.16-10.29-1.16S42.1,102.8,37,102.8s-5.14-1.16-10.29-1.16v-83c5.15,0,5.15,1.17,10.29,1.17s5.14-1.17,10.29-1.17,5.14,1.17,10.29,1.17,5.14-1.17,10.28-1.17S73,19.81,78.11,19.81s5.14-1.17,10.29-1.17m.5-.5h-.5a20.6,20.6,0,0,0-5.26.6,19.48,19.48,0,0,1-5,.57,19.48,19.48,0,0,1-5-.57,23.31,23.31,0,0,0-10.51,0,19.61,19.61,0,0,1-5,.57,19.64,19.64,0,0,1-5-.57,20.51,20.51,0,0,0-5.25-.6,20.67,20.67,0,0,0-5.26.6,19.48,19.48,0,0,1-5,.57,19.55,19.55,0,0,1-5-.57,20.6,20.6,0,0,0-5.26-.6h-.5v84h.5a19.64,19.64,0,0,1,5,.57,20.61,20.61,0,0,0,5.25.59,20.77,20.77,0,0,0,5.26-.59,19.48,19.48,0,0,1,5-.57,19.55,19.55,0,0,1,5,.57,20.71,20.71,0,0,0,5.26.59,20.68,20.68,0,0,0,5.25-.59,22.52,22.52,0,0,1,10.07,0,23.65,23.65,0,0,0,10.5,0,19.64,19.64,0,0,1,5-.57h.5v-84Z" transform="translate(2.68 -2.05)"/><path class="cls-8" d="M20.41,103.86v-.24c0-.27-1-26.37,6.54-43.4l.51-1.16-1.19,43.76-.07.08c-.05,0-1.1,1-5.54,1Z" transform="translate(2.68 -2.05)"/><path class="cls-3" d="M27.16,60.32,26,102.71s-1,.9-5.37.9c0,0-1.06-26.12,6.51-43.29m.57-2.52-1,2.32c-7.54,17.08-6.57,43.24-6.56,43.51l0,.48h.48c4.46,0,5.59-.92,5.71-1l.15-.14v-.21l1.14-42.39.07-2.54Z" transform="translate(2.68 -2.05)"/><path class="cls-8" d="M33.71,103.86c-4.44,0-5.5-.92-5.54-1l-.08-.08L26.91,59.06l.51,1.16c7.52,17,6.55,43.13,6.54,43.4v.24Z" transform="translate(2.68 -2.05)"/><path class="cls-3" d="M27.19,60.32c7.58,17.17,6.52,43.29,6.52,43.29-4.39,0-5.37-.9-5.37-.9L27.19,60.32m-.57-2.52.07,2.54,1.15,42.39v.21l.15.14c.12.11,1.25,1,5.71,1h.48l0-.48c0-.27,1-26.43-6.56-43.51l-1-2.32Z" transform="translate(2.68 -2.05)"/><path class="cls-9" d="M27.22,60.32c2.13,10.48,1.87,39.12,1.83,42.47a.51.51,0,0,1-.26.47,3.26,3.26,0,0,1-1.48.35,4,4,0,0,1-1.7-.33.52.52,0,0,1-.27-.48c0-3.38-.3-32,1.82-42.46" transform="translate(2.68 -2.05)"/><path class="cls-8" d="M41,103.72v-.24c0-.26-1-26.36,6.54-43.39L48,58.93l-1.19,43.76-.07.07s-1.1,1-5.54,1Z" transform="translate(2.68 -2.05)"/><path class="cls-3" d="M47.72,60.19l-1.14,42.39s-1,.89-5.37.89c0,0-1.06-26.11,6.51-43.28m.57-2.53-1,2.33c-7.54,17.08-6.57,43.24-6.56,43.5l0,.48h.48c4.46,0,5.59-.92,5.71-1l.15-.15v-.21L48.22,60.2l.07-2.54Z" transform="translate(2.68 -2.05)"/><path class="cls-8" d="M54.27,103.72c-4.44,0-5.5-.92-5.54-1l-.08-.07L47.47,58.93,48,60.09c7.52,17,6.55,43.13,6.54,43.39v.24Z" transform="translate(2.68 -2.05)"/><path class="cls-3" d="M47.75,60.19c7.58,17.17,6.52,43.28,6.52,43.28-4.39,0-5.37-.89-5.37-.89L47.75,60.19m-.57-2.53.07,2.54,1.15,42.39v.21l.15.15c.12.1,1.25,1,5.71,1h.48l0-.48c0-.26,1-26.42-6.56-43.5l-1-2.33Z" transform="translate(2.68 -2.05)"/><path class="cls-9" d="M47.78,60.32c2.13,10.48,1.87,39.12,1.83,42.47a.51.51,0,0,1-.26.47,3.26,3.26,0,0,1-1.48.35,4,4,0,0,1-1.7-.33.52.52,0,0,1-.27-.48c0-3.38-.3-32,1.82-42.46" transform="translate(2.68 -2.05)"/><path class="cls-8" d="M61.53,103.72v-.24c0-.26-1-26.36,6.54-43.39l.51-1.16-1.19,43.76-.07.07s-1.1,1-5.54,1Z" transform="translate(2.68 -2.05)"/><path class="cls-3" d="M68.28,60.19l-1.14,42.39s-1,.89-5.37.89c0,0-1.06-26.11,6.51-43.28m.57-2.53-1,2.33c-7.54,17.08-6.57,43.24-6.56,43.5l0,.48h.48c4.46,0,5.59-.92,5.71-1l.15-.15v-.21L68.78,60.2l.07-2.54Z" transform="translate(2.68 -2.05)"/><path class="cls-8" d="M74.83,103.72c-4.44,0-5.5-.92-5.54-1l-.08-.07L68,58.93l.51,1.16c7.52,17,6.55,43.13,6.54,43.39v.24Z" transform="translate(2.68 -2.05)"/><path class="cls-3" d="M68.31,60.19c7.58,17.17,6.52,43.28,6.52,43.28-4.39,0-5.37-.89-5.37-.89L68.31,60.19m-.57-2.53.07,2.54L69,102.59v.21l.15.15c.12.1,1.25,1,5.71,1h.48l0-.48c0-.26,1-26.42-6.56-43.5l-1-2.33Z" transform="translate(2.68 -2.05)"/><path class="cls-9" d="M68.28,60.34c-2.12,10.47-1.86,39.08-1.82,42.46a.52.52,0,0,0,.27.48,4,4,0,0,0,1.7.33,3.26,3.26,0,0,0,1.48-.35.51.51,0,0,0,.26-.47c0-3.35.3-32-1.83-42.47" transform="translate(2.68 -2.05)"/><path class="cls-8" d="M82.09,103.72v-.24c0-.26-1-26.36,6.54-43.39l.51-1.16-1.19,43.76-.07.07c-.05,0-1.1,1-5.54,1Z" transform="translate(2.68 -2.05)"/><path class="cls-3" d="M88.84,60.19,87.7,102.58s-1,.89-5.37.89c0,0-1.06-26.11,6.51-43.28m.57-2.53-1,2.33c-7.54,17.08-6.57,43.24-6.56,43.5l0,.48h.48c4.46,0,5.59-.92,5.71-1l.15-.15v-.21L89.34,60.2l.07-2.54Z" transform="translate(2.68 -2.05)"/><path class="cls-8" d="M95.39,103.72c-4.44,0-5.5-.92-5.54-1l-.08-.07L88.59,58.93l.51,1.16c7.52,17,6.55,43.13,6.54,43.39v.24Z" transform="translate(2.68 -2.05)"/><path class="cls-3" d="M88.87,60.19c7.58,17.17,6.52,43.28,6.52,43.28-4.39,0-5.37-.89-5.37-.89L88.87,60.19m-.57-2.53.07,2.54,1.15,42.39v.21l.15.15c.12.1,1.25,1,5.71,1h.48l0-.48c0-.26,1-26.42-6.56-43.5l-1-2.33Z" transform="translate(2.68 -2.05)"/><path class="cls-9" d="M88.84,60.34C86.72,70.81,87,99.42,87,102.8a.52.52,0,0,0,.27.48,4,4,0,0,0,1.7.33,3.26,3.26,0,0,0,1.48-.35.51.51,0,0,0,.26-.47c0-3.35.3-32-1.83-42.47" transform="translate(2.68 -2.05)"/><path class="cls-8" d="M101.85,103.72v-.24c0-.26-1-26.36,6.53-43.39l.52-1.16-1.19,43.76-.08.07s-1.09,1-5.53,1Z" transform="translate(2.68 -2.05)"/><path class="cls-3" d="M108.6,60.19l-1.14,42.39s-1,.89-5.37.89c0,0-1.07-26.11,6.51-43.28m.57-2.53-1,2.33c-7.54,17.08-6.57,43.24-6.56,43.5l0,.48h.48c4.46,0,5.59-.92,5.7-1l.16-.15v-.21L109.1,60.2l.07-2.54Z" transform="translate(2.68 -2.05)"/><path class="cls-8" d="M115.15,103.72c-4.44,0-5.5-.92-5.54-1l-.08-.07-1.18-43.76.51,1.16c7.52,17,6.55,43.13,6.54,43.39v.24Z" transform="translate(2.68 -2.05)"/><path class="cls-3" d="M108.63,60.19c7.58,17.17,6.52,43.28,6.52,43.28-4.4,0-5.37-.89-5.37-.89l-1.15-42.39m-.57-2.53.07,2.54,1.15,42.39v.21l.16.15c.12.1,1.25,1,5.71,1h.48l0-.48c0-.26,1-26.42-6.56-43.5l-1-2.33Z" transform="translate(2.68 -2.05)"/><path class="cls-9" d="M108.6,60.34c-2.12,10.47-1.86,39.08-1.82,42.46a.51.51,0,0,0,.27.48,4,4,0,0,0,1.7.33,3.21,3.21,0,0,0,1.47-.35.54.54,0,0,0,.27-.47c0-3.35.3-32-1.83-42.47" transform="translate(2.68 -2.05)"/><line class="cls-10" x1="29.36" y1="10.62" x2="36.97" y2="10.62"/><line class="cls-10" x1="36.97" y1="3.61" x2="29.36" y2="3.61"/><rect class="cls-4" x="29.36" y="3.61" width="7.61" height="3.57"/><rect class="cls-5" x="29.36" y="7.05" width="7.61" height="3.57"/><line class="cls-10" x1="50.47" y1="10.62" x2="58.08" y2="10.62"/><line class="cls-10" x1="58.08" y1="3.61" x2="50.47" y2="3.61"/><rect class="cls-4" x="50.47" y="3.61" width="7.61" height="3.57"/><rect class="cls-5" x="50.47" y="7.05" width="7.61" height="3.57"/><line class="cls-10" x1="83.71" y1="10.62" x2="91.31" y2="10.62"/><line class="cls-10" x1="91.31" y1="3.61" x2="83.71" y2="3.61"/><rect class="cls-4" x="83.7" y="3.61" width="7.61" height="3.57"/><rect class="cls-5" x="83.7" y="7.05" width="7.61" height="3.57"/><line class="cls-10" x1="104.2" y1="10.62" x2="111.81" y2="10.62"/><line class="cls-10" x1="111.81" y1="3.61" x2="104.2" y2="3.61"/><rect class="cls-4" x="104.2" y="3.61" width="7.61" height="3.57"/><rect class="cls-5" x="104.2" y="7.05" width="7.61" height="3.57"/><path class="cls-9" d="M114.17,46,108.6,60.72,103,46a15.82,15.82,0,0,1-1-5.57V21.16S102,17,108.6,17s6.59,4.12,6.59,4.12V40.38A15.61,15.61,0,0,1,114.17,46Z" transform="translate(2.68 -2.05)"/><path class="cls-9" d="M94.46,46,88.89,60.72,83.32,46a15.83,15.83,0,0,1-1-5.57V21.16S82.3,17,88.89,17s6.59,4.12,6.59,4.12V40.38A15.83,15.83,0,0,1,94.46,46Z" transform="translate(2.68 -2.05)"/><path class="cls-9" d="M73.83,46,68.26,60.72,62.68,46a15.82,15.82,0,0,1-1-5.57V21.16s0-4.12,6.59-4.12,6.58,4.12,6.58,4.12V40.38A15.82,15.82,0,0,1,73.83,46Z" transform="translate(2.68 -2.05)"/><path class="cls-9" d="M53.27,46,47.69,60.72,42.12,46a15.82,15.82,0,0,1-1-5.57V21.16s0-4.12,6.58-4.12,6.59,4.12,6.59,4.12V40.38A15.82,15.82,0,0,1,53.27,46Z" transform="translate(2.68 -2.05)"/><path class="cls-9" d="M32.77,46,27.19,60.72,21.62,46a15.82,15.82,0,0,1-1-5.57V21.16s0-4.12,6.58-4.12,6.59,4.12,6.59,4.12V40.38A15.82,15.82,0,0,1,32.77,46Z" transform="translate(2.68 -2.05)"/><path class="cls-7" d="M23.21,46.68a71.68,71.68,0,0,1,3.87,11.93s.48-2.16-.83-6.93A9.87,9.87,0,0,0,23.21,46.68Z" transform="translate(2.68 -2.05)"/><path class="cls-7" d="M31.06,46.68a72.23,72.23,0,0,0-3.88,11.93s-.47-2.16.84-6.93A9.8,9.8,0,0,1,31.06,46.68Z" transform="translate(2.68 -2.05)"/><path class="cls-7" d="M43.77,46.68a71.68,71.68,0,0,1,3.87,11.93s.48-2.16-.83-6.93A9.87,9.87,0,0,0,43.77,46.68Z" transform="translate(2.68 -2.05)"/><path class="cls-7" d="M51.62,46.68a72.23,72.23,0,0,0-3.88,11.93s-.47-2.16.84-6.93A9.8,9.8,0,0,1,51.62,46.68Z" transform="translate(2.68 -2.05)"/><path class="cls-7" d="M64.33,46.68A71.68,71.68,0,0,1,68.2,58.61s.48-2.16-.83-6.93A9.8,9.8,0,0,0,64.33,46.68Z" transform="translate(2.68 -2.05)"/><path class="cls-7" d="M72.18,46.68a71.68,71.68,0,0,0-3.87,11.93s-.48-2.16.83-6.93A9.8,9.8,0,0,1,72.18,46.68Z" transform="translate(2.68 -2.05)"/><path class="cls-7" d="M84.89,46.68a72.23,72.23,0,0,1,3.88,11.93s.47-2.16-.84-6.93A9.8,9.8,0,0,0,84.89,46.68Z" transform="translate(2.68 -2.05)"/><path class="cls-7" d="M92.74,46.68a71.68,71.68,0,0,0-3.87,11.93s-.48-2.16.83-6.93A9.87,9.87,0,0,1,92.74,46.68Z" transform="translate(2.68 -2.05)"/><path class="cls-7" d="M104.7,46.68a72.23,72.23,0,0,1,3.88,11.93s.48-2.16-.83-6.93A9.85,9.85,0,0,0,104.7,46.68Z" transform="translate(2.68 -2.05)"/><path class="cls-7" d="M112.56,46.68a72.23,72.23,0,0,0-3.88,11.93s-.47-2.16.84-6.93A9.8,9.8,0,0,1,112.56,46.68Z" transform="translate(2.68 -2.05)"/></g></g></g></svg>