<svg xmlns="http://www.w3.org/2000/svg" xmlns:xlink="http://www.w3.org/1999/xlink" viewBox="0 0 142.02 103.9"><defs><style>.cls-1,.cls-11,.cls-8,.cls-9{fill:none;}.cls-2{clip-path:url(#clip-path);}.cls-3{fill:#eaedef;}.cls-10,.cls-11,.cls-3,.cls-4,.cls-8,.cls-9{stroke:#2c4b5b;}.cls-10,.cls-11,.cls-3,.cls-4{stroke-linecap:round;stroke-linejoin:round;}.cls-10,.cls-3{stroke-width:0.43px;}.cls-10,.cls-4{fill:#c0c9ce;}.cls-4{stroke-width:0.46px;}.cls-5{fill:#2c4b5b;}.cls-6{fill:#d5dbde;}.cls-7{fill:#617884;}.cls-8,.cls-9{stroke-miterlimit:10;}.cls-8{stroke-width:2px;}.cls-11,.cls-9{stroke-width:0.5px;}.cls-11{stroke-dasharray:4;}</style><clipPath id="clip-path" transform="translate(2.68 -3.26)"><rect class="cls-1" width="136.27" height="90.38"/></clipPath></defs><g id="Layer_2" data-name="Layer 2"><g id="Layer_1-2" data-name="Layer 1"><g class="cls-2"><path class="cls-3" d="M86.29,41.21c-2.6,0-2.6,2.78-2.6,2.78s0-2.78-2.6-2.78S78.49,44,78.49,44v63s0-2.79,2.6-2.79,2.6,2.79,2.6,2.79,0-2.79,2.6-2.79,2.6,2.79,2.6,2.79V44S88.89,41.21,86.29,41.21Z" transform="translate(2.68 -3.26)"/><path class="cls-3" d="M75.88,41.21c-2.6,0-2.6,2.78-2.6,2.78s0-2.78-2.6-2.78S68.08,44,68.08,44v63s0-2.79,2.6-2.79,2.6,2.79,2.6,2.79,0-2.79,2.6-2.79,2.61,2.79,2.61,2.79V44S78.49,41.21,75.88,41.21Z" transform="translate(2.68 -3.26)"/><path class="cls-3" d="M65.48,41.21c-2.6,0-2.6,2.78-2.6,2.78s0-2.78-2.6-2.78S57.67,44,57.67,44v63s0-2.79,2.61-2.79,2.6,2.79,2.6,2.79,0-2.79,2.6-2.79,2.6,2.79,2.6,2.79V44S68.08,41.21,65.48,41.21Z" transform="translate(2.68 -3.26)"/><path class="cls-3" d="M96.69,41.21c-2.6,0-2.6,2.78-2.6,2.78s0-2.78-2.6-2.78S88.89,44,88.89,44v63s0-2.79,2.6-2.79,2.6,2.79,2.6,2.79,0-2.79,2.6-2.79,2.61,2.79,2.61,2.79V44S99.3,41.21,96.69,41.21Z" transform="translate(2.68 -3.26)"/><path class="cls-3" d="M107.1,41.21c-2.6,0-2.6,2.78-2.6,2.78s0-2.78-2.6-2.78S99.3,44,99.3,44v63s0-2.79,2.6-2.79,2.6,2.79,2.6,2.79,0-2.79,2.6-2.79,2.6,2.79,2.6,2.79V44S109.7,41.21,107.1,41.21Z" transform="translate(2.68 -3.26)"/><path class="cls-3" d="M55.07,41.21c-2.6,0-2.6,2.78-2.6,2.78s0-2.78-2.6-2.78S47.27,44,47.27,44v63s0-2.79,2.6-2.79,2.6,2.79,2.6,2.79,0-2.79,2.6-2.79,2.6,2.79,2.6,2.79V44S57.67,41.21,55.07,41.21Z" transform="translate(2.68 -3.26)"/><path class="cls-3" d="M44.67,41.21c-2.6,0-2.6,2.78-2.6,2.78s0-2.78-2.6-2.78S36.86,44,36.86,44v63s0-2.79,2.61-2.79,2.6,2.79,2.6,2.79,0-2.79,2.6-2.79,2.6,2.79,2.6,2.79V44S47.27,41.21,44.67,41.21Z" transform="translate(2.68 -3.26)"/><path class="cls-3" d="M34.26,41.21c-2.6,0-2.6,2.78-2.6,2.78s0-2.78-2.6-2.78S26.46,44,26.46,44v63s0-2.79,2.6-2.79,2.6,2.79,2.6,2.79,0-2.79,2.6-2.79,2.6,2.79,2.6,2.79V44S36.86,41.21,34.26,41.21Z" transform="translate(2.68 -3.26)"/><path class="cls-4" d="M39.59,41.22h-.12c-2.61,0-2.61,2.78-2.61,2.78v63s0-2.79,2.61-2.79h.12" transform="translate(2.68 -3.26)"/><path class="cls-4" d="M34.14,104.16h.12c2.6,0,2.6,2.79,2.6,2.79V44s0-2.78-2.6-2.78h-.12" transform="translate(2.68 -3.26)"/><path class="cls-4" d="M50,41.22h-.13c-2.6,0-2.6,2.78-2.6,2.78v63s0-2.79,2.6-2.79H50" transform="translate(2.68 -3.26)"/><path class="cls-4" d="M44.54,104.16h.13c2.6,0,2.6,2.79,2.6,2.79V44s0-2.78-2.6-2.78h-.13" transform="translate(2.68 -3.26)"/><path class="cls-4" d="M60.4,41.22h-.12c-2.61,0-2.61,2.78-2.61,2.78v63s0-2.79,2.61-2.79h.12" transform="translate(2.68 -3.26)"/><path class="cls-4" d="M55,104.16h.12c2.6,0,2.6,2.79,2.6,2.79V44s0-2.78-2.6-2.78H55" transform="translate(2.68 -3.26)"/><path class="cls-4" d="M70.81,41.22h-.13c-2.6,0-2.6,2.78-2.6,2.78v63s0-2.79,2.6-2.79h.13" transform="translate(2.68 -3.26)"/><path class="cls-4" d="M65.35,104.16h.13c2.6,0,2.6,2.79,2.6,2.79V44s0-2.78-2.6-2.78h-.13" transform="translate(2.68 -3.26)"/><path class="cls-4" d="M81.21,41.22h-.12c-2.6,0-2.6,2.78-2.6,2.78v63s0-2.79,2.6-2.79h.12" transform="translate(2.68 -3.26)"/><path class="cls-4" d="M75.76,104.16h.12c2.61,0,2.61,2.79,2.61,2.79V44s0-2.78-2.61-2.78h-.12" transform="translate(2.68 -3.26)"/><path class="cls-4" d="M91.62,41.22h-.13c-2.6,0-2.6,2.78-2.6,2.78v63s0-2.79,2.6-2.79h.13" transform="translate(2.68 -3.26)"/><path class="cls-4" d="M86.16,104.16h.13c2.6,0,2.6,2.79,2.6,2.79V44s0-2.78-2.6-2.78h-.13" transform="translate(2.68 -3.26)"/><path class="cls-4" d="M102,41.22h-.12c-2.6,0-2.6,2.78-2.6,2.78v63s0-2.79,2.6-2.79H102" transform="translate(2.68 -3.26)"/><path class="cls-4" d="M96.57,104.16h.12c2.61,0,2.61,2.79,2.61,2.79V44s0-2.78-2.61-2.78h-.12" transform="translate(2.68 -3.26)"/><path class="cls-5" d="M138.84,6.87v7h-141v-7h141m.5-.5h-142v8h142v-8Z" transform="translate(2.68 -3.26)"/><rect class="cls-6" x="0.47" y="3.61" width="141.02" height="3.57"/><rect class="cls-7" x="0.47" y="7.05" width="141.02" height="3.57"/><ellipse class="cls-8" cx="29.82" cy="8.37" rx="1.95" ry="7.37"/><ellipse class="cls-8" cx="50.38" cy="8.37" rx="1.95" ry="7.37"/><ellipse class="cls-8" cx="70.94" cy="8.37" rx="0.39" ry="7.37"/><ellipse class="cls-8" cx="91.5" cy="8.37" rx="1.95" ry="7.37"/><ellipse class="cls-8" cx="112.07" cy="8.37" rx="1.95" ry="7.37"/><line class="cls-9" x1="29.36" y1="10.62" x2="36.97" y2="10.62"/><line class="cls-9" x1="36.97" y1="3.61" x2="29.36" y2="3.61"/><rect class="cls-6" x="29.36" y="3.61" width="7.61" height="3.57"/><rect class="cls-7" x="29.36" y="7.05" width="7.61" height="3.57"/><line class="cls-9" x1="50.47" y1="10.62" x2="58.08" y2="10.62"/><line class="cls-9" x1="58.08" y1="3.61" x2="50.47" y2="3.61"/><rect class="cls-6" x="50.47" y="3.61" width="7.61" height="3.57"/><rect class="cls-7" x="50.47" y="7.05" width="7.61" height="3.57"/><line class="cls-9" x1="83.71" y1="10.62" x2="91.31" y2="10.62"/><line class="cls-9" x1="91.31" y1="3.61" x2="83.71" y2="3.61"/><rect class="cls-6" x="83.7" y="3.61" width="7.61" height="3.57"/><rect class="cls-7" x="83.7" y="7.05" width="7.61" height="3.57"/><line class="cls-9" x1="104.2" y1="10.62" x2="111.81" y2="10.62"/><line class="cls-9" x1="111.81" y1="3.61" x2="104.2" y2="3.61"/><rect class="cls-6" x="104.2" y="3.61" width="7.61" height="3.57"/><rect class="cls-7" x="104.2" y="7.05" width="7.61" height="3.57"/><path class="cls-3" d="M31.66,44s0-1.7-2.6-1.7-2.6,1.7-2.6,1.7V20.67s0-2.78,2.6-2.78,2.6,2.78,2.6,2.78Z" transform="translate(2.68 -3.26)"/><path class="cls-3" d="M36.86,44s0-1.7-2.6-1.7-2.6,1.7-2.6,1.7V20.67s0-2.78,2.6-2.78,2.6,2.78,2.6,2.78Z" transform="translate(2.68 -3.26)"/><path class="cls-10" d="M31.66,44V20.67s0-2.78-2.6-2.78v24.4C31.66,42.29,31.66,44,31.66,44Z" transform="translate(2.68 -3.26)"/><path class="cls-10" d="M31.66,20.67V44s0-1.7,2.6-1.7V17.89C31.66,17.89,31.66,20.67,31.66,20.67Z" transform="translate(2.68 -3.26)"/><path class="cls-3" d="M42.07,44s0-1.7-2.6-1.7S36.86,44,36.86,44V20.67s0-2.78,2.61-2.78,2.6,2.78,2.6,2.78Z" transform="translate(2.68 -3.26)"/><path class="cls-3" d="M47.27,44s0-1.7-2.6-1.7-2.6,1.7-2.6,1.7V20.67s0-2.78,2.6-2.78,2.6,2.78,2.6,2.78Z" transform="translate(2.68 -3.26)"/><path class="cls-3" d="M52.47,44s0-1.7-2.6-1.7-2.6,1.7-2.6,1.7V20.67s0-2.78,2.6-2.78,2.6,2.78,2.6,2.78Z" transform="translate(2.68 -3.26)"/><path class="cls-3" d="M57.67,44s0-1.7-2.6-1.7-2.6,1.7-2.6,1.7V20.67s0-2.78,2.6-2.78,2.6,2.78,2.6,2.78Z" transform="translate(2.68 -3.26)"/><path class="cls-3" d="M62.88,44s0-1.7-2.6-1.7S57.67,44,57.67,44V20.67s0-2.78,2.61-2.78,2.6,2.78,2.6,2.78Z" transform="translate(2.68 -3.26)"/><path class="cls-3" d="M68.08,44s0-1.7-2.6-1.7-2.6,1.7-2.6,1.7V20.67s0-2.78,2.6-2.78,2.6,2.78,2.6,2.78Z" transform="translate(2.68 -3.26)"/><path class="cls-3" d="M73.28,44s0-1.7-2.6-1.7-2.6,1.7-2.6,1.7V20.67s0-2.78,2.6-2.78,2.6,2.78,2.6,2.78Z" transform="translate(2.68 -3.26)"/><path class="cls-3" d="M78.49,44s0-1.7-2.61-1.7-2.6,1.7-2.6,1.7V20.67s0-2.78,2.6-2.78,2.61,2.78,2.61,2.78Z" transform="translate(2.68 -3.26)"/><path class="cls-3" d="M83.69,44s0-1.7-2.6-1.7-2.6,1.7-2.6,1.7V20.67s0-2.78,2.6-2.78,2.6,2.78,2.6,2.78Z" transform="translate(2.68 -3.26)"/><path class="cls-3" d="M88.89,44s0-1.7-2.6-1.7-2.6,1.7-2.6,1.7V20.67s0-2.78,2.6-2.78,2.6,2.78,2.6,2.78Z" transform="translate(2.68 -3.26)"/><path class="cls-3" d="M94.09,44s0-1.7-2.6-1.7-2.6,1.7-2.6,1.7V20.67s0-2.78,2.6-2.78,2.6,2.78,2.6,2.78Z" transform="translate(2.68 -3.26)"/><path class="cls-3" d="M99.3,44s0-1.7-2.61-1.7-2.6,1.7-2.6,1.7V20.67s0-2.78,2.6-2.78,2.61,2.78,2.61,2.78Z" transform="translate(2.68 -3.26)"/><path class="cls-3" d="M104.5,44s0-1.7-2.6-1.7S99.3,44,99.3,44V20.67s0-2.78,2.6-2.78,2.6,2.78,2.6,2.78Z" transform="translate(2.68 -3.26)"/><path class="cls-3" d="M109.7,44s0-1.7-2.6-1.7-2.6,1.7-2.6,1.7V20.67s0-2.78,2.6-2.78,2.6,2.78,2.6,2.78Z" transform="translate(2.68 -3.26)"/><path class="cls-10" d="M42.07,44V20.67s0-2.78-2.6-2.78v24.4C42.07,42.29,42.07,44,42.07,44Z" transform="translate(2.68 -3.26)"/><path class="cls-10" d="M42.07,20.67V44s0-1.7,2.6-1.7V17.89C42.07,17.89,42.07,20.67,42.07,20.67Z" transform="translate(2.68 -3.26)"/><path class="cls-10" d="M52.47,44V20.67s0-2.78-2.6-2.78v24.4C52.47,42.29,52.47,44,52.47,44Z" transform="translate(2.68 -3.26)"/><path class="cls-10" d="M52.47,20.67V44s0-1.7,2.6-1.7V17.89C52.47,17.89,52.47,20.67,52.47,20.67Z" transform="translate(2.68 -3.26)"/><path class="cls-10" d="M62.88,44V20.67s0-2.78-2.6-2.78v24.4C62.88,42.29,62.88,44,62.88,44Z" transform="translate(2.68 -3.26)"/><path class="cls-10" d="M62.88,20.67V44s0-1.7,2.6-1.7V17.89C62.88,17.89,62.88,20.67,62.88,20.67Z" transform="translate(2.68 -3.26)"/><path class="cls-10" d="M73.28,44V20.67s0-2.78-2.6-2.78v24.4C73.28,42.29,73.28,44,73.28,44Z" transform="translate(2.68 -3.26)"/><path class="cls-10" d="M73.28,20.67V44s0-1.7,2.6-1.7V17.89C73.28,17.89,73.28,20.67,73.28,20.67Z" transform="translate(2.68 -3.26)"/><path class="cls-10" d="M83.69,44V20.67s0-2.78-2.6-2.78v24.4C83.69,42.29,83.69,44,83.69,44Z" transform="translate(2.68 -3.26)"/><path class="cls-10" d="M83.69,20.67V44s0-1.7,2.6-1.7V17.89C83.69,17.89,83.69,20.67,83.69,20.67Z" transform="translate(2.68 -3.26)"/><path class="cls-10" d="M94.09,44V20.67s0-2.78-2.6-2.78v24.4C94.09,42.29,94.09,44,94.09,44Z" transform="translate(2.68 -3.26)"/><path class="cls-10" d="M94.09,20.67V44s0-1.7,2.6-1.7V17.89C94.09,17.89,94.09,20.67,94.09,20.67Z" transform="translate(2.68 -3.26)"/><path class="cls-10" d="M104.5,44V20.67s0-2.78-2.6-2.78v24.4C104.5,42.29,104.5,44,104.5,44Z" transform="translate(2.68 -3.26)"/><path class="cls-10" d="M104.5,20.67V44s0-1.7,2.6-1.7V17.89C104.5,17.89,104.5,20.67,104.5,20.67Z" transform="translate(2.68 -3.26)"/><line class="cls-11" x1="29.24" y1="41.51" x2="112.39" y2="41.51"/></g></g></g></svg>