<svg xmlns="http://www.w3.org/2000/svg" xmlns:xlink="http://www.w3.org/1999/xlink" viewBox="0 0 136.27 90.38"><defs><style>.cls-1,.cls-4{fill:#fff;}.cls-1,.cls-8{fill-rule:evenodd;}.cls-2,.cls-5{fill:none;}.cls-3{fill:#d5dbde;}.cls-3,.cls-4,.cls-5,.cls-6,.cls-8{stroke:#2c4b5b;stroke-linecap:round;stroke-linejoin:round;stroke-width:0.5px;}.cls-6{fill:#2c4b5b;}.cls-7{mask:url(#mask);}.cls-8{fill:#80939d;}</style><mask id="mask" x="1.63" y="-0.3" width="132.2" height="84.17" maskUnits="userSpaceOnUse"><g id="b"><path id="a" class="cls-1" d="M1.63,83.86h132.2V-.3H1.63Z"/></g></mask></defs><g id="Layer_2" data-name="Layer 2"><g id="Layer_1-2" data-name="Layer 1"><rect class="cls-2" width="136.27" height="90.38"/><rect class="cls-3" x="10.14" y="7.83" width="115.78" height="78.78"/><rect class="cls-4" x="31.47" y="-7.83" width="73.11" height="110.11" transform="translate(115.25 -20.81) rotate(90)"/><line class="cls-5" x1="10.14" y1="86.62" x2="12.98" y2="83.78"/><line class="cls-5" x1="123.09" y1="83.78" x2="125.92" y2="86.62"/><line class="cls-5" x1="130.72" y1="50.47" x2="130.72" y2="76.2"/><circle class="cls-6" cx="130.72" cy="76.2" r="0.82"/><g class="cls-7"><path class="cls-8" d="M7.69,59.69H127.76V52.57H7.69Z"/></g><g class="cls-7"><path class="cls-8" d="M127.4,34.88H8.05s-7.47,9.53,0,9.72c7.09.18,54.74,0,59.67,0s52.59.18,59.68,0c7.47-.19,0-9.72,0-9.72"/></g><g class="cls-7"><path class="cls-8" d="M127.4,44.69H8.05s-7.47,7.72,0,7.88c7.09.14,54.74,0,59.67,0s52.59.14,59.68,0c7.47-.16,0-7.88,0-7.88"/></g><g class="cls-7"><path class="cls-8" d="M8,34.88h119.5V3.77H8Z"/></g><line class="cls-5" x1="7.96" y1="19.32" x2="127.38" y2="19.32"/><path class="cls-6" d="M27.13,44.69h79c-16,0-35.4-.08-38.46-.09S43.52,44.69,27.13,44.69Z"/><path class="cls-6" d="M127.38,44.69H8a21.05,21.05,0,0,0-1.49,1.78H128.88A22.22,22.22,0,0,0,127.38,44.69Z"/><path class="cls-6" d="M27.13,44.69h0Z"/><path class="cls-6" d="M110.62,44.69h0Z"/><path class="cls-6" d="M127.38,52.57c-7.09.14-54.73,0-59.68,0s-52.58.14-59.67,0H7.67v2.3H127.74v-2.3Z"/><path class="cls-6" d="M67.7,52.57c5,0,52.59.14,59.68,0H8C15.12,52.71,62.77,52.58,67.7,52.57Z"/></g></g></svg>