<svg xmlns="http://www.w3.org/2000/svg" xmlns:xlink="http://www.w3.org/1999/xlink" viewBox="0 0 142.02 104.95"><defs><style>.cls-1,.cls-6,.cls-8{fill:none;}.cls-2{clip-path:url(#clip-path);}.cls-3{fill:#2c4b5b;}.cls-4{fill:#d5dbde;}.cls-5{fill:#617884;}.cls-6,.cls-8,.cls-9{stroke:#2c4b5b;}.cls-6,.cls-8{stroke-miterlimit:10;}.cls-6{stroke-width:2px;}.cls-7{fill:#80939d;}.cls-8,.cls-9{stroke-width:0.5px;}.cls-9{fill:#eaedef;stroke-linecap:round;stroke-linejoin:round;}</style><clipPath id="clip-path" transform="translate(2.68 -2.02)"><rect class="cls-1" width="136.27" height="90.38"/></clipPath></defs><g id="Layer_2" data-name="Layer 2"><g id="Layer_1-2" data-name="Layer 1"><g class="cls-2"><path class="cls-3" d="M138.84,5.63v7h-141v-7h141m.5-.5h-142v8h142v-8Z" transform="translate(2.68 -2.02)"/><rect class="cls-4" x="0.47" y="3.61" width="141.02" height="3.57"/><rect class="cls-5" x="0.47" y="7.05" width="141.02" height="3.57"/><ellipse class="cls-6" cx="29.82" cy="8.37" rx="1.95" ry="7.37"/><ellipse class="cls-6" cx="50.38" cy="8.37" rx="1.95" ry="7.37"/><ellipse class="cls-6" cx="70.94" cy="8.37" rx="0.39" ry="7.37"/><ellipse class="cls-6" cx="91.5" cy="8.37" rx="1.95" ry="7.37"/><ellipse class="cls-6" cx="112.07" cy="8.37" rx="1.95" ry="7.37"/><path class="cls-7" d="M62.5,105.63a5.54,5.54,0,0,1-2.68-.62,5,5,0,0,0-2.47-.58H57.1V18.36h.25A5.49,5.49,0,0,1,60,19a4.94,4.94,0,0,0,2.47.58A5,5,0,0,0,65,19a5.41,5.41,0,0,1,2.67-.62h.25v86.07h-.25a4.92,4.92,0,0,0-2.46.58A5.6,5.6,0,0,1,62.5,105.63Z" transform="translate(2.68 -2.02)"/><path class="cls-3" d="M67.64,18.61v85.57c-2.57,0-2.57,1.2-5.14,1.2s-2.58-1.2-5.15-1.2V18.61c2.57,0,2.57,1.2,5.15,1.2s2.57-1.2,5.14-1.2m.5-.5h-.5a5.83,5.83,0,0,0-2.78.64,5.27,5.27,0,0,1-4.73,0,5.8,5.8,0,0,0-2.78-.64h-.5v86.57h.5a4.87,4.87,0,0,1,2.36.55,6.29,6.29,0,0,0,5.57,0,4.87,4.87,0,0,1,2.36-.55h.5V18.11Z" transform="translate(2.68 -2.02)"/><path class="cls-7" d="M52.2,105.63a5.6,5.6,0,0,1-2.68-.62,5.55,5.55,0,0,0-4.94,0,6.1,6.1,0,0,1-5.36,0,5.55,5.55,0,0,0-4.94,0,5.54,5.54,0,0,1-2.68.62,5.6,5.6,0,0,1-2.68-.62,4.92,4.92,0,0,0-2.46-.58h-.25V18.36h.25a5.49,5.49,0,0,1,2.68.62,5.53,5.53,0,0,0,4.93,0,5.49,5.49,0,0,1,2.68-.62,5.42,5.42,0,0,1,2.68.62,5.55,5.55,0,0,0,4.94,0,6.1,6.1,0,0,1,5.36,0,5.55,5.55,0,0,0,4.94,0,5.45,5.45,0,0,1,2.68-.62h.25v86.07h-.25a5,5,0,0,0-2.47.58A5.6,5.6,0,0,1,52.2,105.63Z" transform="translate(2.68 -2.02)"/><path class="cls-3" d="M57.35,18.61v85.57c-2.58,0-2.58,1.2-5.15,1.2s-2.58-1.2-5.15-1.2-2.57,1.2-5.15,1.2-2.57-1.2-5.15-1.2-2.57,1.2-5.15,1.2-2.57-1.2-5.14-1.2V18.61c2.57,0,2.57,1.2,5.14,1.2s2.58-1.2,5.15-1.2,2.58,1.2,5.15,1.2,2.58-1.2,5.15-1.2,2.57,1.2,5.15,1.2,2.57-1.2,5.15-1.2m.5-.5h-.5a5.85,5.85,0,0,0-2.79.64,5.25,5.25,0,0,1-4.72,0,6.4,6.4,0,0,0-5.58,0,5.25,5.25,0,0,1-4.72,0,6.38,6.38,0,0,0-5.57,0,5.27,5.27,0,0,1-4.73,0,5.83,5.83,0,0,0-2.78-.64H26v86.57h.5a4.87,4.87,0,0,1,2.36.55,6.29,6.29,0,0,0,5.57,0,5.36,5.36,0,0,1,4.73,0,6.29,6.29,0,0,0,5.57,0,5.34,5.34,0,0,1,4.72,0,6.29,6.29,0,0,0,5.57,0,4.88,4.88,0,0,1,2.37-.55h.5V18.11Z" transform="translate(2.68 -2.02)"/><path class="cls-7" d="M104.12,105.63a5.6,5.6,0,0,1-2.68-.62,5,5,0,0,0-2.47-.58h-.25V18.36H99a5.42,5.42,0,0,1,2.68.62,5.55,5.55,0,0,0,4.94,0,5.49,5.49,0,0,1,2.68-.62h.25v86.07h-.25a5,5,0,0,0-2.47.58A5.6,5.6,0,0,1,104.12,105.63Z" transform="translate(2.68 -2.02)"/><path class="cls-3" d="M109.27,18.61v85.57c-2.57,0-2.57,1.2-5.15,1.2s-2.57-1.2-5.15-1.2V18.61c2.58,0,2.58,1.2,5.15,1.2s2.58-1.2,5.15-1.2m.5-.5h-.5a5.88,5.88,0,0,0-2.79.64,5.25,5.25,0,0,1-4.72,0A5.85,5.85,0,0,0,99,18.11h-.5v86.57H99a4.88,4.88,0,0,1,2.37.55,6.29,6.29,0,0,0,5.57,0,4.83,4.83,0,0,1,2.36-.55h.5V18.11Z" transform="translate(2.68 -2.02)"/><path class="cls-7" d="M93.82,105.63a5.6,5.6,0,0,1-2.68-.62,5.53,5.53,0,0,0-4.93,0,5.6,5.6,0,0,1-2.68.62,5.54,5.54,0,0,1-2.68-.62,5.55,5.55,0,0,0-4.94,0,6.1,6.1,0,0,1-5.36,0,5,5,0,0,0-2.47-.58h-.25V18.36h.25a5.49,5.49,0,0,1,2.68.62,5.55,5.55,0,0,0,4.94,0,6.1,6.1,0,0,1,5.36,0A5.55,5.55,0,0,0,86,19a5.42,5.42,0,0,1,2.68-.62,5.49,5.49,0,0,1,2.68.62,5.53,5.53,0,0,0,4.93,0A5.49,5.49,0,0,1,99,18.36h.25v86.07H99a5,5,0,0,0-2.47.58A5.54,5.54,0,0,1,93.82,105.63Z" transform="translate(2.68 -2.02)"/><path class="cls-3" d="M99,18.61v85.57c-2.57,0-2.57,1.2-5.15,1.2s-2.57-1.2-5.14-1.2-2.58,1.2-5.15,1.2-2.58-1.2-5.15-1.2-2.58,1.2-5.15,1.2-2.57-1.2-5.15-1.2V18.61c2.58,0,2.58,1.2,5.15,1.2s2.57-1.2,5.15-1.2,2.57,1.2,5.15,1.2,2.57-1.2,5.15-1.2,2.57,1.2,5.14,1.2,2.58-1.2,5.15-1.2m.5-.5H99a5.8,5.8,0,0,0-2.78.64,5.27,5.27,0,0,1-4.73,0,6.38,6.38,0,0,0-5.57,0,5.27,5.27,0,0,1-4.73,0,6.38,6.38,0,0,0-5.57,0,5.25,5.25,0,0,1-4.72,0,5.85,5.85,0,0,0-2.79-.64h-.5v86.57h.5a4.83,4.83,0,0,1,2.36.55,6.31,6.31,0,0,0,5.58,0,5.34,5.34,0,0,1,4.72,0,6.29,6.29,0,0,0,5.57,0,5.36,5.36,0,0,1,4.73,0,6.29,6.29,0,0,0,5.57,0,4.87,4.87,0,0,1,2.36-.55h.5V18.11Z" transform="translate(2.68 -2.02)"/><line class="cls-8" x1="29.36" y1="10.62" x2="36.97" y2="10.62"/><line class="cls-8" x1="36.97" y1="3.61" x2="29.36" y2="3.61"/><rect class="cls-4" x="29.36" y="3.61" width="7.61" height="3.57"/><rect class="cls-5" x="29.36" y="7.05" width="7.61" height="3.57"/><line class="cls-8" x1="50.47" y1="10.62" x2="58.08" y2="10.62"/><line class="cls-8" x1="58.08" y1="3.61" x2="50.47" y2="3.61"/><rect class="cls-4" x="50.47" y="3.61" width="7.61" height="3.57"/><rect class="cls-5" x="50.47" y="7.05" width="7.61" height="3.57"/><line class="cls-8" x1="83.71" y1="10.62" x2="91.31" y2="10.62"/><line class="cls-8" x1="91.31" y1="3.61" x2="83.71" y2="3.61"/><rect class="cls-4" x="83.7" y="3.61" width="7.61" height="3.57"/><rect class="cls-5" x="83.7" y="7.05" width="7.61" height="3.57"/><line class="cls-8" x1="104.2" y1="10.62" x2="111.81" y2="10.62"/><line class="cls-8" x1="111.81" y1="3.61" x2="104.2" y2="3.61"/><rect class="cls-4" x="104.2" y="3.61" width="7.61" height="3.57"/><rect class="cls-5" x="104.2" y="7.05" width="7.61" height="3.57"/><path class="cls-9" d="M26.46,62.24,23.09,20.42s0-2.66,3.37-2.66,3.36,2.66,3.36,2.66Z" transform="translate(2.68 -2.02)"/><path class="cls-9" d="M26.46,62.24l3.36,41.82s0,2.66-3.36,2.66-3.37-2.66-3.37-2.66Z" transform="translate(2.68 -2.02)"/><path class="cls-9" d="M36.84,62.24,33.47,20.42s0-2.66,3.37-2.66,3.36,2.66,3.36,2.66Z" transform="translate(2.68 -2.02)"/><path class="cls-9" d="M36.84,62.24l3.36,41.82s0,2.66-3.36,2.66-3.37-2.66-3.37-2.66Z" transform="translate(2.68 -2.02)"/><path class="cls-9" d="M47.22,62.24,43.85,20.42s0-2.66,3.37-2.66,3.36,2.66,3.36,2.66Z" transform="translate(2.68 -2.02)"/><path class="cls-9" d="M47.22,62.24l3.36,41.82s0,2.66-3.36,2.66-3.37-2.66-3.37-2.66Z" transform="translate(2.68 -2.02)"/><path class="cls-9" d="M57.6,62.24,54.23,20.42s0-2.66,3.37-2.66S61,20.42,61,20.42Z" transform="translate(2.68 -2.02)"/><path class="cls-9" d="M57.6,62.24,61,104.06s0,2.66-3.36,2.66-3.37-2.66-3.37-2.66Z" transform="translate(2.68 -2.02)"/><path class="cls-9" d="M68,62.24,64.61,20.42s0-2.66,3.37-2.66,3.36,2.66,3.36,2.66Z" transform="translate(2.68 -2.02)"/><path class="cls-9" d="M68,62.24l3.36,41.82s0,2.66-3.36,2.66-3.37-2.66-3.37-2.66Z" transform="translate(2.68 -2.02)"/><path class="cls-9" d="M78.36,62.24,75,20.42s0-2.66,3.37-2.66,3.36,2.66,3.36,2.66Z" transform="translate(2.68 -2.02)"/><path class="cls-9" d="M78.36,62.24l3.36,41.82s0,2.66-3.36,2.66S75,104.06,75,104.06Z" transform="translate(2.68 -2.02)"/><path class="cls-9" d="M88.74,62.24,85.37,20.42s0-2.66,3.37-2.66,3.36,2.66,3.36,2.66Z" transform="translate(2.68 -2.02)"/><path class="cls-9" d="M88.74,62.24l3.36,41.82s0,2.66-3.36,2.66-3.37-2.66-3.37-2.66Z" transform="translate(2.68 -2.02)"/><path class="cls-9" d="M99.12,62.24,95.75,20.42s0-2.66,3.37-2.66,3.36,2.66,3.36,2.66Z" transform="translate(2.68 -2.02)"/><path class="cls-9" d="M99.12,62.24l3.36,41.82s0,2.66-3.36,2.66-3.37-2.66-3.37-2.66Z" transform="translate(2.68 -2.02)"/><path class="cls-9" d="M109.5,62.24l-3.37-41.82s0-2.66,3.37-2.66,3.36,2.66,3.36,2.66Z" transform="translate(2.68 -2.02)"/><path class="cls-9" d="M109.5,62.24l3.36,41.82s0,2.66-3.36,2.66-3.37-2.66-3.37-2.66Z" transform="translate(2.68 -2.02)"/></g></g></g></svg>